<svg width="86" height="20" viewBox="0 0 86 20" fill="none" xmlns="http://www.w3.org/2000/svg">
<g clip-path="url(#clip0_1217_3901)">
<path d="M71.2 7.5001C70.8 8.5001 70.5 9.4001 70.1 10.4001C69.3 12.4001 68.5 14.5001 67.8 16.5001C67.8 16.6001 67.7 16.6001 67.7 16.7001C66.6 16.6001 65.6 16.5001 64.5 16.4001C64.6 16.3001 64.6 16.2001 64.6 16.1001C65 15.3001 65.3 14.6001 65.7 13.8001C65.8 13.6001 65.8 13.4001 65.7 13.2001C64.9 11.4001 64 9.6001 63.2 7.8001C63.1 7.7001 63.1 7.5001 63 7.4001C64.1 7.3001 65.1 7.2001 66.2 7.1001C66.6 8.1001 66.9 9.1001 67.3 10.1001H67.4C67.7 9.1001 68 8.2001 68.3 7.2001C69.3 7.3001 70.3 7.3001 71.3 7.4001C71.2 7.4001 71.2 7.5001 71.2 7.5001Z" fill="white"/>
<path d="M13 19.9999C13.7 19.3999 14.4 18.7999 15 18.0999C16 16.7999 16.6 15.1999 16.9 13.5999C17 12.7999 17.1 11.9999 16.8 11.2999C16.7 10.9999 16.6 10.6999 16.4 10.3999C16.5 10.3999 16.6 10.3999 16.7 10.3999C17.4 10.5999 17.9 10.8999 18.1 11.5999C18.2 11.8999 18.3 12.0999 18.6 12.0999C18.9 12.0999 19.1 11.9999 19.3 11.7999C19.4 11.5999 19.6 11.2999 19.9 11.2999C20.2 11.2999 20.3 11.3999 20.2 11.6999C19.7 14.4999 18.4 16.8999 16.1 18.5999C15.3 19.1999 14.3 19.5999 13.3 19.8999C13.2 19.8999 13.2 19.9999 13.1 19.9999C13.1 19.9999 13.1 19.9999 13 19.9999Z" fill="#D45F93"/>
<path d="M31.3008 16.5002C30.3008 16.6002 29.4008 16.7002 28.4008 16.7002C28.3008 15.3002 28.1008 13.9002 28.0008 12.6002H27.9008C27.4008 14.0002 26.8008 15.4002 26.3008 16.9002C25.7008 15.4002 25.2008 14.0002 24.6008 12.5002C24.6008 12.5002 24.6008 12.5002 24.5008 12.5002C24.3008 13.9002 24.2008 15.2002 24.0008 16.6002C22.8008 16.6002 21.6008 16.6002 20.3008 16.6002C22.6008 13.8002 22.9008 10.7002 22.1008 7.3002C23.1008 7.3002 24.1008 7.3002 25.1008 7.3002C25.5008 8.4002 25.9008 9.4002 26.3008 10.6002C26.5008 10.1002 26.7008 9.6002 26.9008 9.1002C27.1008 8.6002 27.3008 8.0002 27.5008 7.4002C27.5008 7.3002 27.6008 7.2002 27.7008 7.2002C28.5008 7.2002 29.4008 7.2002 30.2008 7.2002C30.5008 10.4002 30.9008 13.4002 31.3008 16.5002Z" fill="white"/>
<path d="M37.9993 16.7003C35.5993 16.7003 33.4993 15.3003 32.8993 13.3003C32.1993 11.2003 33.0993 9.00031 35.0993 7.80031C37.2993 6.50031 40.7993 6.90031 42.3993 9.70031C43.2993 11.2003 43.1993 13.5003 41.4993 15.2003C40.4993 16.2003 39.2993 16.8003 37.9993 16.7003ZM37.8993 14.0003C38.9993 14.0003 39.8993 13.0003 39.8993 11.9003C39.8993 10.8003 38.8993 9.80031 37.7993 9.80031C36.6993 9.80031 35.6993 10.8003 35.6993 11.9003C35.6993 13.1003 36.6993 14.0003 37.8993 14.0003Z" fill="white"/>
<path d="M53.1 16.5002C52.2 16.5002 51.4 16.5002 50.6 16.5002C50.5 16.5002 50.4 16.4002 50.3 16.3002C49.6 15.1002 48.9 14.0002 48.2 12.8002C48.1 12.6002 48 12.4002 47.8 12.3002C47.8 13.7002 47.8 15.1002 47.8 16.6002C46.9 16.7002 45.9 16.7002 45 16.8002C45 13.7002 45 10.5002 45 7.4002C45.3 7.4002 45.5 7.4002 45.8 7.4002C46.3 7.4002 46.9 7.4002 47.4 7.4002C47.6 7.4002 47.7 7.5002 47.9 7.7002C48.6 8.9002 49.4 10.2002 50.1 11.4002C50.2 11.5002 50.2 11.6002 50.3 11.7002C50.3 10.2002 50.3 8.8002 50.3 7.4002C51.2 7.3002 52.2 7.3002 53.1 7.2002C53.1 10.3002 53.1 13.4002 53.1 16.5002Z" fill="white"/>
<path d="M60.6016 7.2998C60.8016 8.0998 61.0016 8.8998 61.2016 9.7998C60.3016 9.7998 59.4016 9.7998 58.5016 9.7998C58.5016 10.0998 58.5016 10.3998 58.5016 10.6998C59.1016 10.6998 59.7016 10.6998 60.3016 10.6998C60.3016 11.4998 60.3016 12.1998 60.3016 12.9998C59.7016 12.9998 59.1016 12.9998 58.5016 12.9998C58.5016 13.2998 58.5016 13.5998 58.5016 13.8998C59.4016 13.8998 60.4016 13.8998 61.4016 13.8998C61.2016 14.7998 61.0016 15.5998 60.8016 16.4998C59.0016 16.4998 57.3016 16.4998 55.6016 16.4998C55.6016 16.3998 55.6016 16.2998 55.6016 16.0998C55.6016 13.2998 55.6016 10.4998 55.6016 7.6998C55.6016 7.3998 55.7016 7.2998 56.0016 7.2998C57.4016 7.2998 58.9016 7.2998 60.3016 7.2998C60.3016 7.2998 60.4016 7.2998 60.6016 7.2998Z" fill="white"/>
<path d="M18.7992 11.6C18.6992 11.5 18.5992 11.4 18.5992 11.3C18.2992 10.2 17.4992 9.90001 16.4992 9.90001H16.3992C16.2992 9.90001 16.2992 9.80001 16.1992 9.80001C16.1992 9.70001 16.2992 9.60001 16.2992 9.60001C16.4992 9.50001 16.7992 9.40001 16.9992 9.30001C17.5992 9.00001 17.8992 8.60001 17.7992 8.00001C17.7992 7.60001 17.5992 7.30001 17.2992 7.10001C17.0992 7.00001 17.0992 6.80001 17.0992 6.60001C17.2992 5.90001 17.0992 5.40001 16.5992 5.00001C16.3992 4.90001 16.3992 4.70001 16.3992 4.50001C16.4992 4.00001 16.0992 3.40001 15.4992 3.40001C14.2992 3.40001 13.5992 2.20001 14.1992 1.10001C14.4992 0.800011 14.6992 0.400011 14.9992 1.08518e-05C14.9992 1.08518e-05 15.1992 -0.0999891 15.2992 1.08518e-05C15.9992 0.200011 16.5992 0.300011 17.2992 0.500011C17.4992 0.600011 17.6992 0.700011 17.7992 0.800011C18.9992 2.50001 19.8992 4.20001 20.2992 6.20001C20.3992 6.60001 20.3992 6.90001 20.1992 7.20001C19.6992 8.00001 19.8992 8.90001 20.3992 9.60001C20.5992 9.90001 20.7992 10.2 20.7992 10.6C20.7992 10.9 20.7992 11 20.4992 10.8C19.8992 10.5 19.4992 10.6 19.0992 11.3C18.8992 11.4 18.8992 11.5 18.7992 11.6ZM16.0992 0.800011C15.2992 0.800011 14.5992 1.40001 14.3992 2.10001C14.2992 2.50001 14.4992 2.80001 14.8992 2.90001C15.5992 3.10001 16.6992 2.40001 16.7992 1.70001C16.9992 1.10001 16.6992 0.800011 16.0992 0.800011Z" fill="#D45F93"/>
<path d="M14.5001 9.90006C13.7001 9.80006 12.9001 9.70006 12.1001 9.70006C11.9001 9.70006 11.6001 9.80006 11.4001 9.90006C11.1001 10.0001 11.1001 10.2001 11.4001 10.4001C11.7001 10.6001 12.0001 10.7001 12.2001 10.8001C12.7001 11.0001 13.1001 11.2001 13.5001 11.5001C14.5001 12.1001 14.9001 12.9001 14.8001 14.0001C14.7001 15.1001 14.2001 15.9001 13.2001 16.3001C12.4001 16.7001 11.5001 16.8001 10.7001 16.7001C10.0001 16.7001 9.20006 16.6001 8.40006 16.5001C8.40006 15.6001 8.40006 14.8001 8.40006 13.9001C8.90006 13.9001 9.20006 14.0001 9.60006 14.0001C10.1001 14.0001 10.7001 14.0001 11.2001 14.0001C11.3001 14.0001 11.5001 14.0001 11.6001 13.9001C11.9001 13.7001 11.9001 13.4001 11.6001 13.3001C11.3001 13.1001 10.9001 13.0001 10.5001 12.8001C10.2001 12.7001 9.90006 12.5001 9.60006 12.4001C8.60006 11.9001 8.20006 11.0001 8.30006 10.0001C8.30006 8.90006 8.80006 8.00006 9.90006 7.60006C10.9001 7.10006 11.9001 7.20006 13.0001 7.20006C13.4001 7.20006 13.7001 7.40006 13.8001 7.80006C14.0001 8.50006 14.3001 9.20006 14.5001 9.90006Z" fill="white"/>
<path d="M0 11.2001C0.2 10.4001 0.4 9.7001 0.8 9.1001C1.7 7.8001 3 7.1001 4.5 7.1001C5 7.1001 5.4 7.1001 5.9 7.2001C6 7.2001 6.2 7.3001 6.2 7.4001C6.4 8.3001 6.5 9.2001 6.7 10.2001C6.3 10.0001 6 9.9001 5.7 9.9001C5.3 9.9001 4.9 9.9001 4.5 10.0001C3.4 10.3001 2.8 11.1001 3 12.3001C3 13.1001 3.8 13.9001 4.9 14.0001C5.5 14.1001 6.2 13.9001 6.8 13.6001C6.7 14.1001 6.7 14.5001 6.6 15.0001C6.5 15.5001 6.5 15.9001 6.4 16.4001C6.4 16.5001 6.3 16.6001 6.2 16.6001C4.1 17.1001 1.9 16.7001 0.7 14.5001C0.3 14.0001 0.2 13.3001 0 12.7001C0 12.2001 0 11.7001 0 11.2001Z" fill="white"/>
</g>
<defs>
<clipPath id="clip0_1217_3901">
<rect width="86" height="20" fill="white"/>
</clipPath>
</defs>
</svg>
