<svg width="97" height="23" viewBox="0 0 97 23" fill="none" xmlns="http://www.w3.org/2000/svg">
<path d="M93.612 13.5038C93.612 10.9864 93.612 8.35452 93.612 5.60825C94.4301 5.60825 95.1313 5.60825 95.9494 5.60825C95.9494 9.84208 95.9494 14.0759 95.9494 18.3097C95.365 18.3097 94.7807 18.3097 94.0795 18.3097C92.2096 15.6779 90.2229 12.9316 88.353 10.2998C88.353 12.8172 88.353 15.449 88.353 18.3097C87.6518 18.3097 86.8337 18.3097 86.0156 18.3097C86.0156 14.0759 86.0156 9.72765 86.0156 5.49382C86.2494 5.49382 86.3662 5.37939 86.6 5.37939C86.9506 5.37939 87.418 5.37939 87.8855 5.37939C89.6385 8.12566 91.6253 10.7575 93.612 13.5038Z" fill="white"/>
<path d="M46.3965 11.558C46.7471 11.6724 46.9808 11.7868 47.0977 11.7868C49.6688 12.7023 49.5519 16.0207 48.0326 17.2794C47.4483 17.7371 46.6302 18.1948 45.8121 18.3092C43.9422 18.7669 41.9555 18.6525 39.9688 18.3092C39.9688 14.0754 39.9688 9.95599 39.9688 5.60773C42.1892 5.15002 44.4097 5.03559 46.6302 5.72216C47.9157 6.06544 48.6169 6.98086 48.7338 8.23957C48.8507 9.49828 48.3832 10.6426 47.0977 11.2147C46.9808 11.2147 46.7471 11.3291 46.3965 11.558ZM42.423 12.7023C42.423 14.0754 42.423 15.1052 42.423 16.2495C43.4748 16.5928 44.4097 16.5928 45.3447 16.1351C46.1627 15.7918 46.5133 15.1052 46.5133 14.3042C46.3965 13.5033 45.929 13.0455 45.2278 12.9311C44.2928 12.8167 43.3579 12.8167 42.423 12.7023ZM42.423 10.8714C43.4748 11.1003 44.4097 10.9858 45.2278 10.5281C45.8121 10.1848 46.2796 9.61271 46.1627 8.81171C45.929 8.01072 45.4615 7.553 44.7603 7.43858C44.0591 7.32415 43.241 7.20972 42.423 7.553C42.423 8.58285 42.423 9.72713 42.423 10.8714Z" fill="white"/>
<path d="M83.909 12.0159C83.909 13.2746 83.7921 14.4189 83.3246 15.4487C82.5066 17.5084 80.7535 18.6527 78.2993 18.6527C75.8451 18.6527 74.209 17.5084 73.3909 15.3343C72.5728 13.0457 72.5728 10.7572 73.3909 8.46863C74.209 6.2945 75.8451 5.26465 78.2993 5.26465C80.7535 5.26465 82.5066 6.2945 83.2078 8.46863C83.6752 9.61291 83.909 10.7572 83.909 12.0159ZM81.221 12.0159C81.221 11.1005 80.9873 10.185 80.7536 9.26962C80.403 8.12535 79.5849 7.55321 78.4162 7.55321C77.3644 7.43878 76.3126 8.01092 75.962 9.1552C75.2608 10.986 75.3776 12.8169 75.962 14.6477C76.4294 15.9064 77.3644 16.3642 78.5331 16.3642C79.7017 16.2497 80.5198 15.6776 80.8704 14.5333C81.1042 13.7323 81.221 12.9313 81.221 12.0159Z" fill="white"/>
<path d="M65.0945 18.3092C64.1596 18.3092 63.3415 18.3092 62.5234 18.3092C62.5234 14.0753 62.5234 9.84149 62.5234 5.60766C64.3933 5.14995 66.2632 5.14995 68.1331 5.49323C69.5355 5.72209 70.7042 6.52308 71.0548 8.01064C71.4054 9.72706 71.0548 11.2146 69.5355 12.3589C69.3018 12.5878 68.9512 12.7022 68.6006 12.8166C70.2367 14.3042 70.9379 16.3639 72.3403 18.1947C71.2885 18.1947 70.3536 18.1947 69.3018 18.1947C68.3668 16.5927 67.315 14.9907 66.3801 13.2743C65.9126 13.1599 65.562 13.1599 65.0945 13.0455C65.0945 14.8763 65.0945 16.5927 65.0945 18.3092ZM65.0945 7.55293C65.0945 8.92607 65.0945 10.0703 65.0945 11.4435C65.9126 11.3291 66.6138 11.3291 67.315 11.1002C68.1331 10.8713 68.6006 9.95592 68.4837 9.0405C68.3668 8.2395 67.8993 7.66736 66.9644 7.55293C66.3801 7.55293 65.7957 7.55293 65.0945 7.55293Z" fill="white"/>
<path d="M49.9023 18.3097C51.5385 13.9615 53.0578 9.72765 54.577 5.37939C55.2782 5.37939 55.7457 5.37939 56.4469 5.37939C57.9662 9.61323 59.6023 13.9615 61.1216 18.3097C60.1867 18.3097 59.3686 18.3097 58.4337 18.3097C58.0831 17.3943 57.7325 16.5933 57.3819 15.5635C55.9795 15.5635 54.6939 15.5635 53.2915 15.5635C52.9409 16.4789 52.5903 17.2799 52.3566 18.1953C51.6554 18.3097 50.8373 18.3097 49.9023 18.3097ZM55.512 8.81223C55.0445 10.4142 54.6939 11.9018 54.2264 13.3893C55.1614 13.3893 55.9795 13.3893 56.9144 13.3893C56.4469 11.9018 55.9794 10.4142 55.512 8.81223Z" fill="white"/>
<path d="M35.7619 15.2204C35.7619 11.902 35.7619 8.81247 35.7619 5.60849C36.2294 5.60849 36.58 5.60849 36.9306 5.60849C37.1643 6.98163 37.1643 17.509 36.9306 18.5388C36.3462 18.7677 36.1125 18.31 35.8788 17.9667C33.6583 14.8771 31.4378 11.6732 29.3342 8.58362C29.3342 8.46919 29.2173 8.46919 29.1004 8.35476C29.1004 11.6732 29.1004 14.8771 29.1004 18.31C28.7498 18.31 28.2824 18.4244 27.9318 18.4244C27.698 17.3946 27.5812 7.32491 27.8149 5.49406C28.1655 5.26521 28.5161 5.37964 28.7498 5.72292C28.9836 5.95178 29.2173 6.29506 29.3342 6.52391C31.4378 9.38461 33.5414 12.2453 35.7619 15.2204Z" fill="white"/>
<path d="M19.8668 18.3097C19.0488 18.3097 18.5813 18.3097 17.8801 18.3097C16.7114 16.8222 15.4259 15.3346 14.2572 13.7326C14.0235 13.3893 13.7897 13.0461 13.4391 12.7028C13.2054 12.4739 12.8548 12.3595 12.2704 12.1306C12.2704 14.3048 12.2704 16.1356 12.2704 18.1953C11.6861 18.1953 11.3355 18.1953 10.7512 18.3097C10.6343 14.0759 10.7512 9.84208 10.7512 5.49382C11.2186 5.49382 11.6861 5.37939 12.2704 5.37939C12.3873 7.32467 12.2704 9.26994 12.3873 11.2152C13.2054 11.4441 13.4391 10.8719 13.7897 10.4142C15.0753 8.81223 16.3608 7.09581 17.6463 5.49382C18.1138 5.49382 18.5813 5.49382 19.1656 5.49382C18.815 6.40925 16.2439 9.72765 14.6078 11.4441C16.1271 13.7326 17.9969 15.9068 19.8668 18.3097Z" fill="white"/>
<path d="M7.94699 5.83598C7.83012 6.29369 7.71325 6.63698 7.47952 6.98026C6.89518 6.86583 6.31084 6.63698 5.60964 6.63698C4.79157 6.63698 3.97349 6.52255 3.15542 6.7514C1.63614 7.20912 1.28554 8.69668 2.45422 9.72653C2.92169 10.0698 3.38916 10.2987 3.85663 10.642C4.6747 11.0997 5.49277 11.4429 6.31084 11.9007C7.59639 12.7017 8.29759 13.8459 8.06386 15.4479C7.83012 17.0499 6.77831 17.8509 5.25904 18.3086C3.50602 18.7663 1.86988 18.5375 0 17.8509C0.116867 17.3932 0.233734 17.0499 0.350602 16.5922C1.28554 16.8211 2.22048 17.0499 3.03855 17.0499C3.85663 17.0499 4.6747 17.0499 5.3759 16.7066C6.77831 16.1345 7.01205 14.5325 5.96024 13.6171C5.49277 13.1594 5.0253 12.9305 4.44096 12.5872C3.62289 12.1295 2.80482 11.7862 1.98675 11.3285C0.584336 10.4131 -9.0556e-07 9.03996 0.350602 7.43797C0.701204 6.17926 1.86988 5.26384 3.50602 5.14941C4.90843 5.26384 6.42771 5.26384 7.94699 5.83598Z" fill="white"/>
<path d="M22.6704 5.60693C23.1378 5.60693 23.6053 5.60693 24.0728 5.60693C24.0728 9.84076 24.0728 14.0746 24.0728 18.3084C23.6053 18.3084 23.2547 18.4229 22.7872 18.4229C22.5535 17.393 22.4366 7.78106 22.6704 5.60693Z" fill="white"/>
</svg>
